<svg version="1.1" viewBox="0.0 0.0 960.0 720.0" fill="none" stroke="none" stroke-linecap="square" stroke-miterlimit="10" xmlns:xlink="http://www.w3.org/1999/xlink" xmlns="http://www.w3.org/2000/svg"><clipPath id="p.0"><path d="m0 0l960.0 0l0 720.0l-960.0 0l0 -720.0z" clip-rule="nonzero"/></clipPath><g clip-path="url(#p.0)"><path fill="#000000" fill-opacity="0.0" d="m0 0l960.0 0l0 720.0l-960.0 0z" fill-rule="evenodd"/><path fill="#000000" fill-opacity="0.0" d="m43.274887 65.49603l873.4488 0" fill-rule="evenodd"/><path stroke="#000000" stroke-width="24.0" stroke-linejoin="round" stroke-linecap="butt" d="m43.274883 65.49603l729.4488 0" fill-rule="evenodd"/><path fill="#000000" stroke="#000000" stroke-width="24.0" stroke-linecap="butt" d="m772.7237 105.13761l108.91431 -39.64158l-108.91431 -39.64158z" fill-rule="evenodd"/><path fill="#ffffff" d="m43.27559 154.0l873.44885 0l0 500.50397l-873.44885 0z" fill-rule="evenodd"/><path stroke="#000000" stroke-width="24.0" stroke-linejoin="round" stroke-linecap="butt" d="m43.27559 154.0l873.44885 0l0 500.50397l-873.44885 0z" fill-rule="evenodd"/><path fill="#000000" d="m43.27559 154.0l436.72443 0l0 500.50397l-436.72443 0z" fill-rule="evenodd"/><path stroke="#000000" stroke-width="1.0" stroke-linejoin="round" stroke-linecap="butt" d="m43.27559 154.0l436.72443 0l0 500.50397l-436.72443 0z" fill-rule="evenodd"/></g></svg>